<svg width="616" height="128" viewBox="0 0 616 128" fill="none" xmlns="http://www.w3.org/2000/svg">
<path d="M170.341 72.8726H160V31.2732H170.341V34.4166C170.498 34.26 170.674 34.0935 170.87 33.9172C171.085 33.7409 171.271 33.5745 171.428 33.4178C171.937 32.9869 172.603 32.5658 173.426 32.1545C174.248 31.7236 175.13 31.3319 176.07 30.9794C176.834 30.7052 177.676 30.4996 178.596 30.3625C179.517 30.2058 180.477 30.1274 181.475 30.1274C183.473 30.1274 185.353 30.4114 187.116 30.9794C188.898 31.5474 190.367 32.3504 191.523 33.3884C191.973 33.7997 192.404 34.2502 192.815 34.7398C193.246 35.2098 193.618 35.6995 193.932 36.2087C194.323 35.7387 194.754 35.2686 195.224 34.7986C195.714 34.3285 196.194 33.8976 196.664 33.5059C196.918 33.3101 197.232 33.0946 197.604 32.8596C197.976 32.6246 198.368 32.3993 198.779 32.1839C199.19 31.9685 199.611 31.7628 200.042 31.567C200.493 31.3515 200.933 31.1557 201.364 30.9794C202.109 30.7052 202.921 30.4996 203.803 30.3625C204.684 30.2058 205.605 30.1274 206.564 30.1274C207.935 30.1274 209.247 30.2743 210.501 30.5681C211.754 30.8619 212.91 31.2928 213.968 31.8607C215.025 32.4091 215.965 33.0848 216.788 33.8878C217.61 34.6712 218.286 35.5722 218.815 36.5906C219.363 37.707 219.784 39.1367 220.078 40.8798C220.372 42.6229 220.519 44.6402 220.519 46.9317V72.8726H210.119V49.7814C210.119 44.7479 209.874 41.7318 209.385 40.7329C208.719 39.2053 208.141 38.275 207.651 37.942C206.731 37.3153 205.83 37.0019 204.949 37.0019C204.283 37.0019 203.558 37.1586 202.775 37.472C201.991 37.7853 201.188 38.2358 200.366 38.8234C199.758 39.2738 199.151 39.9201 198.544 40.7623C197.937 41.5849 197.349 42.5935 196.781 43.7883C195.88 45.6684 195.43 48.6161 195.43 52.6311V72.8726H185.089V49.7814C185.089 44.9438 184.873 41.9276 184.443 40.7329C184.129 39.9887 183.816 39.3815 183.502 38.9115C183.209 38.4218 182.925 38.0987 182.651 37.942C181.495 37.2761 180.555 36.9432 179.83 36.9432C179.243 36.9432 178.567 37.1096 177.803 37.4426C177.059 37.7559 176.256 38.226 175.394 38.8527C174.767 39.3424 174.131 40.0181 173.485 40.8798C172.858 41.722 172.26 42.7502 171.692 43.9645C170.792 45.8447 170.341 48.7336 170.341 52.6311V72.8726Z" fill="#0D1A3C"/>
<path d="M241.936 70.8161C238.978 64.255 236.021 57.6645 233.063 51.0446C230.106 44.4248 227.149 37.8343 224.191 31.2732H235.002L247.194 58.2423L251.248 48.5769C252.443 45.7174 253.667 42.8286 254.921 39.9103C256.174 36.9921 257.388 34.1131 258.564 31.2732H268.758L251.278 72.7257C250.201 75.2326 249.143 77.436 248.105 79.3358C247.086 81.2551 246.107 82.7534 245.167 83.8306C243.796 85.3778 241.926 86.6607 239.556 87.6791C237.793 88.443 235.228 88.8249 231.859 88.8249H224.955V82.538H230.566C232.055 82.538 233.387 82.2931 234.562 81.8035C235.756 81.3335 236.814 80.5598 237.734 79.4826C238.342 78.758 239.517 76.3588 241.26 72.285L241.936 70.8161Z" fill="#0D1A3C"/>
<path d="M301.353 72.4613C299.238 72.9901 297.406 73.3818 295.859 73.6364C294.312 73.891 293.009 74.0183 291.952 74.0183C290.444 74.0183 289.014 73.8812 287.663 73.607C286.311 73.3524 285.067 72.9607 283.932 72.4319C282.815 71.9031 281.816 71.2568 280.935 70.4929C280.073 69.7291 279.368 68.8478 278.82 67.8489C278.232 66.713 277.782 65.3616 277.468 63.7947C277.175 62.2279 277.028 60.4065 277.028 58.3304V37.5307H269.918V31.2732H277.028V21.5784H287.398V31.2732H299.355V37.5307H287.398V56.3915C287.398 60.1127 287.633 62.5902 288.103 63.8241H288.074C288.407 64.5684 288.73 65.2049 289.043 65.7337C289.376 66.2429 289.699 66.5857 290.013 66.7619C290.581 67.0753 291.159 67.3201 291.746 67.4964C292.334 67.6531 292.911 67.7314 293.479 67.7314C294.498 67.7314 297.122 67.0753 301.353 65.7631V72.4613Z" fill="#0D1A3C"/>
<path d="M316.424 72.8726H306.083V13H316.424V34.5635C316.62 34.3873 316.835 34.2012 317.07 34.0053C317.305 33.7899 317.53 33.6038 317.746 33.4472C318.862 32.5658 320.449 31.7432 322.505 30.9794C324.013 30.4114 325.874 30.1274 328.087 30.1274C329.556 30.1274 330.956 30.2743 332.288 30.5681C333.62 30.8619 334.854 31.2928 335.99 31.8607C337.125 32.4091 338.144 33.075 339.045 33.8585C339.946 34.6419 340.69 35.5232 341.278 36.5025C341.904 37.6384 342.384 39.0486 342.717 40.7329C343.05 42.4173 343.217 44.3269 343.217 46.4617V72.8726H332.846V49.3995C332.846 45.5803 332.631 43.0146 332.2 41.7024C331.612 39.881 330.927 38.7352 330.143 38.2652C328.753 37.423 327.499 37.0019 326.383 37.0019C325.697 37.0019 324.943 37.1586 324.121 37.472C323.298 37.7657 322.466 38.177 321.624 38.7058C321.016 39.1171 320.39 39.7341 319.743 40.5567C319.097 41.3792 318.47 42.3781 317.863 43.5532C317.374 44.4737 317.011 45.6782 316.776 47.1667C316.541 48.6356 316.424 50.3885 316.424 52.4254V72.8726Z" fill="#0D1A3C"/>
<path d="M350.003 31.2732H360.344V72.8726H350.003V31.2732ZM350.003 24.3986V15.2915H360.344V24.3986H350.003Z" fill="#0D1A3C"/>
<path d="M377.971 72.8726H367.63V31.2732H377.971V34.5635C378.167 34.3873 378.382 34.2012 378.617 34.0053C378.852 33.7899 379.077 33.6038 379.293 33.4472C380.409 32.5658 381.996 31.7432 384.052 30.9794C385.56 30.4114 387.421 30.1274 389.634 30.1274C391.103 30.1274 392.503 30.2743 393.835 30.5681C395.167 30.8619 396.401 31.2928 397.537 31.8607C398.673 32.4091 399.691 33.075 400.592 33.8585C401.493 34.6419 402.237 35.5232 402.825 36.5025C403.451 37.6384 403.931 39.0486 404.264 40.7329C404.597 42.4173 404.764 44.3269 404.764 46.4617V72.8726H394.393V49.3995C394.393 45.5803 394.178 43.0146 393.747 41.7024C393.14 39.8614 392.435 38.7156 391.632 38.2652C390.946 37.8539 390.3 37.5405 389.693 37.3251C389.086 37.1096 388.498 37.0019 387.93 37.0019C387.245 37.0019 386.49 37.1586 385.668 37.472C384.845 37.7657 384.013 38.177 383.171 38.7058C382.564 39.1171 381.937 39.7341 381.291 40.5567C380.644 41.3792 380.018 42.3781 379.41 43.5532C378.921 44.4737 378.558 45.6782 378.323 47.1667C378.088 48.6356 377.971 50.3885 377.971 52.4254V72.8726Z" fill="#0D1A3C"/>
<path d="M422.185 72.8726H411.55V13H422.185V47.578C424.751 44.8361 427.297 42.1235 429.823 39.4403C432.35 36.7375 434.886 34.0151 437.432 31.2732H448.302L430.293 50.6333C433.368 54.2762 436.482 57.9877 439.635 61.7676C442.789 65.528 445.893 69.2297 448.948 72.8726H437.373L422.185 54.9519V72.8726Z" fill="#0D1A3C"/>
<path d="M453.487 31.2732H463.828V72.8726H453.487V31.2732ZM453.487 24.3986V15.2915H463.828V24.3986H453.487Z" fill="#0D1A3C"/>
<path d="M481.455 72.8726H471.114V31.2732H481.455V34.5635C481.651 34.3873 481.867 34.2012 482.102 34.0053C482.337 33.7899 482.562 33.6038 482.777 33.4472C483.894 32.5658 485.48 31.7432 487.536 30.9794C489.045 30.4114 490.905 30.1274 493.118 30.1274C494.587 30.1274 495.988 30.2743 497.319 30.5681C498.651 30.8619 499.885 31.2928 501.021 31.8607C502.157 32.4091 503.175 33.075 504.076 33.8585C504.977 34.6419 505.722 35.5232 506.309 36.5025C506.936 37.6384 507.416 39.0486 507.749 40.7329C508.082 42.4173 508.248 44.3269 508.248 46.4617V72.8726H497.878V49.3995C497.878 45.5803 497.662 43.0146 497.231 41.7024C496.624 39.8614 495.919 38.7156 495.116 38.2652C494.431 37.8539 493.784 37.5405 493.177 37.3251C492.57 37.1096 491.982 37.0019 491.414 37.0019C490.729 37.0019 489.975 37.1586 489.152 37.472C488.33 37.7657 487.497 38.177 486.655 38.7058C486.048 39.1171 485.421 39.7341 484.775 40.5567C484.129 41.3792 483.502 42.3781 482.895 43.5532C482.405 44.4737 482.043 45.6782 481.808 47.1667C481.573 48.6356 481.455 50.3885 481.455 52.4254V72.8726Z" fill="#0D1A3C"/>
<path d="M543.237 68.6715C541.808 70.0425 540.123 71.0903 538.184 71.815C536.245 72.52 534.062 72.8726 531.633 72.8726C525.914 72.8726 521.439 70.9238 518.207 67.0263C514.76 62.8351 513.037 57.7331 513.037 51.7203C513.037 47.8033 513.791 44.0233 515.299 40.3804C516.631 37.2663 518.844 34.7006 521.938 32.6833C524.582 30.9794 527.922 30.1274 531.956 30.1274C533.484 30.1274 534.884 30.2547 536.157 30.5094C537.45 30.764 538.615 31.1557 539.653 31.6845C540.26 31.9978 540.868 32.37 541.475 32.8008C542.101 33.2317 542.689 33.6822 543.237 34.1522V31.2732H553.578V65.0874C553.578 69.122 553.324 72.5494 552.815 75.3697C552.325 78.19 551.61 80.364 550.67 81.8917C549.867 83.0668 548.819 84.1831 547.527 85.2408C546.254 86.318 544.834 87.2385 543.267 88.0023C541.915 88.6486 540.358 89.1382 538.596 89.4712C536.853 89.8237 534.972 90 532.955 90C531.114 90 529.371 89.8629 527.726 89.5887C526.081 89.3341 524.582 88.9522 523.231 88.443C521.703 87.8554 520.332 87.1895 519.118 86.4453C517.904 85.701 516.983 84.9568 516.356 84.2125C515.593 83.2333 514.985 82.254 514.535 81.2747C514.104 80.315 513.889 79.4239 513.889 78.6013V77.6906H524.259V78.5719C524.259 79.512 524.435 80.3248 524.788 81.0103C525.14 81.7154 525.64 82.2638 526.286 82.6555C527.246 83.1647 528.274 83.5564 529.371 83.8306C530.487 84.1244 531.653 84.2713 532.867 84.2713C534.865 84.2713 536.598 83.8502 538.067 83.008C539.555 82.1854 540.819 80.8536 541.857 79.0126C542.777 77.4262 543.237 74.0281 543.237 68.8184V68.6715ZM543.237 50.839C543.237 46.2168 542.248 42.7306 540.27 40.3804C538.057 37.7364 535.815 36.4143 533.543 36.4143C532.328 36.4143 531.134 36.7571 529.958 37.4426C528.783 38.1281 527.667 39.1171 526.609 40.4098C525.669 41.6436 524.945 43.2105 524.435 45.1103C523.946 46.9905 523.701 49.2134 523.701 51.7791C523.701 54.8932 524.102 57.6155 524.905 59.9462C525.708 62.2769 526.854 64.0004 528.343 65.1168C529.204 65.6456 530.076 66.0764 530.957 66.4094C531.839 66.7228 532.651 66.8794 533.396 66.8794C534.649 66.8794 535.854 66.4975 537.009 65.7337C538.184 64.9699 539.291 63.8731 540.329 62.4433H540.3C541.24 61.0528 541.964 59.388 542.474 57.4491C542.983 55.5101 543.237 53.3068 543.237 50.839Z" fill="#0D1A3C"/>
<path d="M558.338 61.4445H568.679V61.8852C568.679 63.8437 569.149 65.2441 570.089 66.0862V66.0568C571.44 67.1732 573.33 67.7314 575.759 67.7314C577.952 67.7314 579.872 67.0655 581.517 65.7337C582.829 64.7153 583.485 63.1778 583.485 61.1213C583.485 58.5165 582.183 56.8223 579.578 56.0389L576.082 54.9813L573.761 54.2469C572.958 54.0118 572.155 53.767 571.352 53.5124C570.569 53.2578 569.776 53.013 568.973 52.778C562.784 50.5452 559.689 47.1569 559.689 42.6131C559.689 41.1051 560.061 39.6264 560.805 38.177C561.569 36.7081 562.686 35.2784 564.155 33.8878C565.506 32.7127 567.278 31.7922 569.472 31.1263C571.666 30.4604 574.192 30.1274 577.052 30.1274C582.908 30.1274 586.942 31.2046 589.155 33.359C591.662 35.8072 592.916 38.1966 592.916 40.5273V40.968H582.516V40.5273C582.516 39.2346 581.987 38.226 580.929 37.5013C579.891 36.7767 578.481 36.4143 576.699 36.4143C575.681 36.4143 574.721 36.5612 573.82 36.855C572.939 37.1292 572.155 37.5307 571.47 38.0595H571.499C570.481 38.8625 569.971 40.1845 569.971 42.0256C569.971 42.6915 570.06 43.279 570.236 43.7883C570.412 44.2779 570.696 44.7186 571.088 45.1103C571.479 45.502 571.979 45.8545 572.586 46.1679C573.213 46.4617 573.967 46.7359 574.848 46.9905H574.819L578.109 47.9012L580.577 48.6063C582.242 49.0763 583.642 49.4974 584.778 49.8695C585.914 50.2221 586.658 50.4767 587.011 50.6333C587.637 50.9467 588.166 51.2307 588.597 51.4853C589.048 51.7399 589.439 51.975 589.772 52.1904C591.202 53.2872 592.25 54.4721 592.916 55.7451C593.582 57.0182 593.915 58.4283 593.915 59.9756C593.915 63.6381 592.348 66.9676 589.214 69.9641C586.355 72.6669 581.889 74.0183 575.818 74.0183C573.879 74.0183 572.126 73.8812 570.559 73.607C569.012 73.3524 567.611 72.9803 566.358 72.4907C565.124 71.9814 564.037 71.3743 563.097 70.6692C562.157 69.9446 561.344 69.1318 560.659 68.2308C559.111 66.1548 558.338 64.0396 558.338 61.8852V61.4445Z" fill="#0D1A3C"/>
<rect x="601.729" y="60.8275" width="14.1015" height="11.7512" fill="#32AA9C"/>
<rect width="104" height="104" rx="8" fill="#0D1A3C"/>
<rect x="68" y="68" width="56" height="56" rx="4" stroke="#32AA9C" stroke-width="8"/>
</svg>
